<?xml version="1.0" standalone="no"?>
<!DOCTYPE svg PUBLIC "-//W3C//DTD SVG 20010904//EN" "http://www.w3.org/TR/2001/REC-SVG-20010904/DTD/svg10.dtd">
<svg version="1.0" xmlns="http://www.w3.org/2000/svg" width="101" height="64.001" viewBox="0 0 800.000000 800.000000"
    preserveAspectRatio="xMidYMid meet">

    <g transform="translate(0.000000,800.000000) scale(0.100000,-0.100000)" fill="#000000" stroke="none">
        <path d="M3845 7804 c-22 -2 -103 -9 -180 -15 -596 -46 -1180 -234 -1705 -549
-409 -246 -776 -574 -1071 -960 -69 -90 -219 -305 -219 -314 0 -3 -15 -29 -34
-59 -39 -60 -226 -431 -226 -447 0 -5 -4 -18 -9 -28 -71 -134 -194 -556 -230
-787 -6 -38 -15 -99 -21 -135 -39 -256 -39 -763 0 -997 5 -35 15 -93 20 -130
14 -93 29 -164 52 -253 11 -41 24 -91 28 -110 54 -227 192 -565 335 -821 57
-102 172 -289 184 -299 3 -3 19 -25 34 -48 104 -160 344 -431 541 -611 361
-330 753 -575 1211 -756 94 -38 184 -71 200 -76 17 -4 68 -19 115 -34 47 -14
103 -30 125 -35 22 -5 89 -20 149 -34 60 -14 154 -33 210 -41 55 -8 131 -20
168 -25 151 -22 462 -32 684 -21 121 6 251 16 289 21 179 27 218 34 330 56 66
14 136 29 155 34 133 36 406 123 455 145 17 7 70 29 118 49 317 130 642 326
947 571 137 109 384 351 496 485 410 489 686 1055 813 1665 50 241 53 290 48
815 -4 519 -2 496 -63 770 -150 671 -512 1326 -1005 1819 -660 661 -1504 1055
-2443 1141 -122 11 -440 20 -501 14z m570 -93 c134 -16 223 -28 285 -40 78
-14 249 -51 285 -61 17 -5 71 -21 120 -35 101 -30 110 -33 215 -70 75 -26 83
-30 150 -57 19 -8 51 -21 70 -28 47 -19 292 -141 371 -186 35 -20 78 -45 96
-55 105 -60 280 -182 412 -288 481 -385 886 -915 1108 -1451 8 -19 19 -43 24
-52 46 -89 175 -516 199 -663 4 -27 15 -90 24 -140 66 -367 60 -859 -15 -1245
-27 -140 -47 -223 -90 -375 -14 -49 -77 -232 -89 -260 -5 -11 -27 -65 -50
-120 -128 -307 -302 -596 -539 -893 -98 -122 -390 -418 -501 -507 -41 -33 -84
-68 -95 -79 -36 -33 -248 -181 -350 -243 -403 -248 -828 -414 -1295 -507 -488
-97 -1018 -95 -1515 6 -156 32 -287 64 -355 87 -14 5 -77 26 -140 46 -63 21
-119 42 -125 46 -5 5 -15 9 -22 9 -7 0 -36 11 -65 25 -28 14 -55 25 -59 25
-27 0 -322 154 -497 259 -24 14 -51 31 -60 36 -178 106 -479 353 -673 552
-141 144 -169 177 -387 463 -91 120 -284 465 -357 640 -15 36 -33 79 -40 95
-11 26 -19 48 -55 140 -35 89 -105 337 -130 460 -138 677 -97 1322 125 1970
101 293 285 647 472 909 101 141 88 124 234 295 129 152 337 353 484 466 21
17 52 42 69 56 33 28 209 151 263 184 211 130 436 248 588 309 39 15 79 32 90
36 19 8 139 51 195 70 25 9 173 52 240 70 96 26 283 62 465 90 50 8 210 22
375 33 67 4 455 -11 545 -22z" />
        <path d="M3672 7513 c10 -2 21 -17 25 -31 11 -37 10 -373 -1 -394 -7 -16 -3
-18 35 -18 24 0 55 3 68 7 24 6 24 7 18 100 -6 88 -5 93 13 93 13 0 43 -31 90
-96 l71 -95 62 1 c34 1 78 -1 97 -5 l35 -7 0 47 c0 38 5 51 26 68 15 13 29 37
33 57 3 19 21 53 40 75 l34 40 12 -40 c34 -114 33 -115 -36 -115 -21 0 -33 -4
-29 -10 3 -5 26 -10 50 -10 40 0 46 -3 60 -31 9 -17 15 -47 13 -67 l-3 -37 60
-6 c33 -3 63 -3 67 0 4 4 -6 47 -22 96 -36 113 -87 281 -96 318 -11 49 -37 32
-92 -62 -29 -49 -52 -92 -52 -95 0 -15 -112 -176 -129 -185 -16 -9 -24 -5 -51
25 -17 20 -47 61 -68 91 l-36 55 42 35 c39 32 42 39 42 82 0 39 -5 53 -27 76
-42 41 -62 45 -221 44 -81 -1 -139 -3 -130 -6z m231 -24 c37 -28 54 -88 37
-129 -18 -43 -95 -81 -119 -57 -12 12 -16 164 -5 191 9 23 56 20 87 -5z" />
        <path d="M3340 7468 c-73 -15 -73 -15 -57 -40 8 -13 22 -66 30 -118 9 -52 21
-128 27 -168 7 -40 9 -84 5 -99 l-6 -26 52 7 c29 4 61 12 72 17 16 9 17 12 4
22 -17 14 -39 132 -31 165 4 12 2 28 -4 35 -14 17 -37 160 -29 181 10 25 55
13 84 -22 33 -40 32 -113 -2 -140 -33 -26 -32 -32 8 -32 45 0 103 42 117 85
16 48 -2 100 -44 126 -35 21 -143 25 -226 7z" />
        <path d="M4693 7399 c-1 -45 1 -50 18 -46 21 6 24 -3 33 -93 12 -128 27 -237
37 -259 l10 -24 25 24 c15 13 40 44 57 69 17 25 43 60 59 78 47 54 31 60 -19
7 l-48 -50 -3 33 c-2 19 -11 89 -21 155 l-17 122 -34 11 c-19 6 -48 14 -65 18
l-30 6 -2 -51z" />
        <path d="M2846 7330 c-23 -67 -37 -292 -16 -260 5 8 10 31 10 50 0 19 5 42 10
50 9 12 17 8 46 -25 58 -65 59 -72 19 -91 -23 -11 -46 -14 -69 -10 l-34 6 -11
-76 c-6 -41 -16 -84 -21 -94 -14 -27 0 -31 44 -12 l38 17 -21 19 c-14 13 -21
31 -21 58 0 40 -3 37 75 68 59 24 83 20 114 -16 17 -19 31 -41 31 -49 0 -9 9
-15 22 -15 29 0 108 30 108 42 0 4 -19 27 -43 51 -24 23 -76 80 -117 127 -141
159 -158 176 -164 160z" />
        <path d="M4675 7318 c-4 -15 -3 -32 1 -39 11 -19 26 29 15 49 -8 14 -10 13
-16 -10z" />
        <path d="M5027 7298 c-36 -45 -62 -88 -52 -88 3 0 19 15 35 33 l29 32 1 -34
c0 -19 -4 -48 -10 -65 -5 -17 -22 -71 -37 -121 -15 -49 -33 -97 -41 -106 -11
-15 -10 -19 10 -33 12 -9 35 -16 50 -16 15 0 30 -4 33 -10 3 -5 16 -10 28 -10
16 0 18 3 9 12 -18 18 -15 36 27 185 57 196 59 203 72 219 9 11 8 15 -2 18 -8
2 -29 9 -48 15 -54 18 -68 13 -104 -31z" />
        <path d="M2588 7254 c-27 -14 -27 -15 -8 -34 17 -17 18 -29 13 -112 -6 -104
-13 -119 -46 -99 -64 38 -147 108 -147 124 0 10 -8 17 -20 17 -24 0 -120 -47
-120 -58 0 -4 10 -13 23 -21 12 -8 69 -48 125 -90 86 -62 108 -84 128 -125 13
-27 24 -60 24 -73 0 -31 25 -30 84 3 l47 26 -20 22 c-11 12 -30 44 -42 71 -20
44 -22 64 -20 163 1 66 8 130 17 154 8 22 14 42 14 44 0 8 -26 2 -52 -12z" />
        <path d="M4658 7250 c-7 -17 -17 -60 -25 -109 -4 -24 -2 -32 6 -27 6 4 11 18
11 32 0 14 5 34 11 45 5 11 9 32 7 47 -3 18 -6 22 -10 12z" />
        <path d="M5307 7176 c-87 -43 -129 -112 -128 -216 0 -56 5 -76 25 -109 26 -40
84 -91 104 -91 7 0 12 -4 12 -10 0 -13 -25 -13 -48 -1 -31 17 -173 72 -236 92
-33 10 -70 23 -81 29 -11 5 -103 29 -205 54 -468 113 -909 124 -1375 35 -505
-97 -969 -312 -1375 -637 -227 -181 -510 -481 -610 -645 -19 -31 -40 -57 -46
-57 -7 0 -14 -7 -18 -15 -3 -8 -14 -15 -25 -15 -28 0 -81 48 -81 73 1 33 71
131 96 135 18 3 63 -13 106 -36 6 -3 78 101 78 113 0 3 -13 5 -30 5 -16 0 -51
4 -77 9 -26 5 -77 14 -113 20 -36 5 -105 18 -153 27 -59 11 -92 13 -99 6 -6
-6 8 -37 45 -93 119 -183 177 -284 177 -309 0 -14 5 -31 11 -37 16 -16 -32
-63 -64 -63 -24 0 -93 32 -133 60 -18 13 -147 205 -157 233 -5 17 -37 -1 -37
-22 0 -11 9 -21 23 -25 20 -5 52 -44 85 -106 7 -14 20 -32 27 -40 28 -31 2
-42 -109 -47 -76 -4 -106 -3 -106 6 0 6 -6 11 -12 11 -16 -1 -68 -104 -59
-117 3 -5 63 -6 146 -3 153 7 174 4 242 -36 42 -24 45 -28 39 -58 -4 -17 -19
-44 -34 -59 -30 -30 -14 -27 -365 -56 -53 -4 -100 -11 -104 -15 -4 -4 62 -73
146 -153 84 -81 158 -158 166 -173 11 -21 11 -31 0 -58 -8 -17 -16 -32 -19
-32 -3 0 -20 9 -38 19 -30 18 -112 40 -231 61 -26 5 -63 15 -82 21 -43 16 -51
9 -60 -57 l-6 -51 58 -6 c50 -4 151 -25 283 -58 53 -14 64 -23 56 -53 -7 -28
-25 -33 -55 -14 -37 23 -69 -9 -57 -57 5 -19 13 -25 34 -25 52 0 54 -6 33
-126 -94 -538 -30 -1129 180 -1657 103 -259 289 -579 450 -772 207 -249 386
-420 620 -592 171 -126 450 -282 639 -357 52 -21 104 -41 115 -46 11 -5 29
-11 40 -13 11 -3 54 -17 95 -32 41 -15 91 -31 110 -35 19 -5 60 -15 90 -23
188 -52 549 -97 776 -97 143 0 424 25 559 51 33 6 80 14 105 19 83 15 345 88
395 110 11 5 64 25 119 46 113 43 351 158 431 209 30 19 56 35 59 35 7 0 147
96 244 168 409 299 793 782 982 1232 18 41 38 89 45 105 35 81 93 257 120 365
30 119 33 135 44 190 61 313 71 718 25 1026 -10 61 -14 122 -11 136 7 28 40
42 155 67 120 26 159 34 189 42 18 4 42 5 53 2 24 -6 26 9 9 71 -20 74 -18 70
-37 54 -9 -9 -55 -25 -102 -36 -265 -64 -289 -65 -304 -14 -14 48 7 63 164
117 154 54 207 68 221 60 13 -9 11 4 -12 79 -19 61 -22 66 -35 48 -15 -22
-125 -65 -156 -60 -16 2 -25 17 -40 63 -10 33 -17 64 -14 71 6 15 134 57 156
51 33 -8 30 22 -12 121 l-14 33 -11 -24 c-9 -19 -37 -32 -144 -67 -74 -24
-138 -47 -144 -51 -5 -4 -27 -10 -47 -14 -33 -6 -40 -4 -67 25 -28 32 -68 116
-58 126 2 3 21 -5 42 -17 76 -45 201 -23 266 48 84 90 81 158 -16 355 l-28 57
-27 -22 c-14 -12 -97 -58 -183 -101 l-157 -79 -30 28 c-55 52 -46 65 118 172
81 53 158 99 172 103 29 9 29 18 -6 70 -29 43 -39 48 -63 26 -28 -25 -303
-206 -314 -206 -16 0 -77 50 -77 63 0 7 21 29 48 50 26 20 61 49 77 64 30 28
73 62 144 115 20 15 45 27 57 28 32 0 35 10 12 41 -27 36 -34 36 -41 2 -3 -16
-20 -39 -37 -53 -17 -14 -51 -42 -76 -62 -44 -37 -64 -46 -64 -30 0 7 20 99
41 192 23 102 23 136 -1 172 -43 63 -70 74 -70 29 0 -23 -12 -40 -62 -83 -35
-29 -64 -56 -66 -60 -2 -5 -8 -8 -13 -8 -6 0 -28 -17 -50 -37 -51 -48 -63 -54
-100 -55 -16 -1 -32 -5 -35 -10 -3 -5 -28 15 -56 43 -36 37 -47 54 -39 62 6 6
11 19 11 29 0 10 8 44 19 76 10 31 31 98 46 147 15 50 36 115 46 146 10 30 19
58 19 62 0 13 -26 7 -71 -14 -109 -52 -216 -102 -234 -109 -11 -4 -36 -15 -55
-23 -19 -9 -47 -19 -62 -22 -32 -8 -36 -22 -10 -41 16 -13 16 -13 0 -14 -10 0
-18 5 -18 10 0 6 -5 10 -11 10 -6 0 -41 21 -78 48 -93 67 -118 84 -160 109
-94 57 -230 131 -283 155 -27 12 -48 25 -48 29 0 4 30 5 68 2 56 -5 76 -2 114
15 136 63 180 248 86 363 -20 25 -96 69 -117 69 -11 0 -23 5 -26 10 -11 18
-98 10 -148 -14z m224 -42 c64 -68 -8 -290 -115 -355 -44 -27 -79 -24 -115 10
-27 26 -31 35 -31 85 0 90 67 231 129 269 42 26 103 22 132 -9z m-1161 -213
c294 -39 553 -108 825 -220 48 -20 323 -156 355 -176 266 -167 415 -280 612
-465 65 -61 198 -214 198 -228 0 -11 -30 -13 -167 -7 -173 7 -208 16 -219 53
-8 23 -14 38 -74 166 -27 59 -50 112 -50 117 0 14 -29 25 -140 57 -310 87
-549 123 -825 123 -298 1 -482 -42 -642 -147 -93 -62 -144 -116 -210 -222
l-46 -74 -50 78 c-57 91 -147 183 -229 237 -66 43 -233 99 -350 117 -43 6
-166 11 -275 11 -243 0 -363 -15 -708 -91 -22 -5 -65 -16 -95 -25 -30 -9 -74
-21 -97 -26 -23 -6 -46 -16 -51 -22 -9 -11 -58 -118 -118 -257 -49 -112 -37
-104 -159 -117 -139 -14 -262 -19 -271 -10 -11 11 60 93 215 247 293 291 565
475 976 660 99 45 302 112 450 148 190 47 213 51 450 81 87 12 594 5 695 -8z
m1835 -485 c-10 -35 -22 -56 -31 -56 -8 0 -31 15 -51 34 -32 29 -35 36 -24 50
7 9 19 16 26 16 7 0 18 6 25 14 14 18 64 25 68 9 2 -6 -4 -36 -13 -67z m-98
-37 c26 -23 52 -48 56 -56 11 -18 -9 -76 -32 -98 -18 -15 -21 -15 -51 0 -17 9
-49 32 -71 52 -49 44 -54 90 -13 122 38 30 57 26 111 -20z m-2829 -210 c53 -5
126 -17 162 -26 79 -19 218 -83 245 -113 18 -19 18 -24 5 -47 -22 -39 -33 -37
-52 8 -14 32 -22 40 -40 38 -13 -1 -36 2 -52 6 -19 5 -36 4 -48 -4 -11 -7 -28
-9 -39 -6 -11 4 -26 1 -34 -5 -12 -10 -20 -9 -40 4 -27 18 -55 21 -55 6 0 -5
-9 -10 -19 -10 -11 0 -23 5 -26 10 -10 16 -40 12 -58 -7 -8 -10 -17 -34 -19
-53 l-3 -35 -42 43 c-42 42 -59 50 -65 32 -1 -5 0 -56 3 -112 3 -57 7 -423 8
-814 2 -639 1 -716 -14 -750 -9 -22 -19 -70 -22 -109 -4 -45 -13 -80 -25 -97
-23 -33 -115 -78 -159 -78 -133 0 -229 110 -234 270 -2 41 -3 79 -4 84 -1 5
-80 7 -178 5 l-178 -4 -3 816 c-2 646 1 818 10 826 12 9 91 31 193 53 22 5 62
14 89 20 70 16 172 30 326 44 176 17 251 18 368 5z m1742 1 c193 -17 367 -46
595 -100 l70 -16 3 -797 2 -797 -83 0 c-51 0 -88 -5 -95 -12 -9 -9 -12 -101
-12 -352 0 -334 0 -340 -19 -321 -10 11 -110 164 -221 340 -111 176 -209 325
-217 332 -19 15 -172 15 -190 0 -9 -6 -13 -41 -13 -108 0 -91 -12 -135 -26
-92 -23 70 -80 135 -147 166 -78 36 -182 48 -397 46 -105 -1 -196 3 -201 8
-12 12 -12 1059 0 1153 19 142 78 282 149 350 52 50 181 129 232 144 14 3 50
14 80 22 69 20 225 41 310 43 36 0 117 -4 180 -9z m1597 -37 c-3 -27 -13 -79
-21 -118 -21 -89 -35 -158 -43 -213 -6 -47 -26 -64 -46 -40 -83 103 -127 169
-127 191 0 14 10 37 23 52 28 32 199 174 211 175 5 0 6 -21 3 -47z m-3350
-239 c-1 -40 -5 -70 -9 -68 -4 3 -8 42 -8 87 0 54 3 77 9 68 5 -8 9 -47 8 -87z
m93 19 c-1 -31 -3 -35 -11 -20 -6 9 -7 26 -4 37 10 30 15 24 15 -17z m93 -25
l-11 -43 -1 55 c-1 41 2 51 11 42 8 -8 8 -23 1 -54z m339 35 c27 -32 67 -108
89 -169 44 -126 49 -204 49 -808 l0 -569 -52 49 c-29 28 -70 60 -90 73 l-38
23 0 702 c0 387 3 706 7 709 10 11 19 8 35 -10z m-628 -55 c6 -31 4 -38 -9
-38 -11 0 -15 11 -15 47 0 53 14 48 24 -9z m437 -11 c-13 -13 -15 11 -4 40 7
16 8 15 11 -6 2 -13 -1 -28 -7 -34z m107 11 c-2 -31 -8 -44 -20 -46 -21 -4
-24 24 -6 63 17 38 30 30 26 -17z m-1558 -1364 l1 -1320 -29 -65 c-45 -97 -73
-159 -94 -209 -45 -107 -53 -120 -65 -120 -11 0 -13 235 -11 1333 l3 1332 73
149 c39 82 72 150 72 152 0 8 43 74 46 71 2 -2 4 -597 4 -1323z m-940 1295
c28 -6 54 -17 57 -24 2 -8 -7 -27 -21 -42 -14 -15 -26 -31 -26 -35 0 -5 -8 -8
-17 -8 -19 1 -86 98 -77 112 7 11 23 10 84 -3z m4640 2 c0 -5 24 -60 53 -122
30 -63 70 -151 90 -195 l37 -82 0 -1300 c0 -869 -3 -1303 -10 -1307 -6 -4 -28
32 -51 82 -92 198 -112 239 -127 268 -16 27 -17 141 -20 1325 -1 712 0 1305 3
1318 5 21 25 32 25 13z m-4309 -1853 c0 -970 0 -1787 -1 -1816 -1 -41 2 -53
16 -59 9 -3 71 -1 138 5 66 6 177 16 246 22 69 6 251 22 405 35 154 14 336 29
405 35 356 30 483 42 565 50 50 6 128 11 175 12 75 1 90 -2 130 -25 65 -37
216 -85 307 -98 138 -19 284 10 433 86 97 49 51 48 475 10 94 -9 220 -20 280
-25 152 -12 319 -27 525 -45 96 -9 225 -20 285 -25 61 -5 173 -15 250 -22 77
-6 167 -12 200 -12 l60 -1 3 1808 c2 1435 5 1807 15 1807 30 0 189 -246 296
-458 127 -251 229 -550 270 -792 6 -36 15 -93 21 -126 40 -232 39 -648 0 -879
-38 -215 -59 -306 -118 -490 -48 -152 -153 -395 -220 -510 -9 -16 -33 -57 -52
-90 -79 -138 -205 -311 -344 -470 -292 -336 -746 -656 -1157 -815 -88 -34
-286 -100 -354 -118 -104 -27 -126 -33 -176 -43 -395 -78 -852 -81 -1224 -7
-486 96 -926 296 -1318 600 -180 140 -309 265 -499 486 -53 61 -195 268 -262
381 -57 97 -166 310 -166 326 0 3 -9 24 -19 48 -104 228 -184 553 -216 877
-43 430 18 889 172 1305 54 145 48 131 122 285 81 171 295 510 322 510 5 0 9
-657 10 -1762z m1852 1731 c21 0 21 -8 1 -81 -15 -53 -15 -59 0 -83 19 -28 59
-33 89 -10 11 7 25 11 33 8 8 -3 14 0 14 6 0 6 -6 11 -14 11 -15 0 -26 41 -29
110 l-2 45 77 1 77 0 3 -195 c2 -108 2 -359 0 -559 -3 -337 -5 -363 -20 -356
-23 12 -222 17 -222 7 0 -5 -14 -10 -31 -11 -17 -1 -41 -8 -53 -14 -11 -7 -36
-18 -53 -24 l-33 -12 0 69 c0 54 3 67 14 63 8 -3 17 -1 21 5 3 7 -2 11 -14 11
-21 0 -21 4 -21 280 0 200 -3 286 -12 299 -9 15 -9 45 0 134 7 63 12 156 12
206 0 54 4 90 9 86 5 -3 12 -1 15 4 3 5 32 7 63 5 32 -2 66 -4 76 -5z m2880
-25 l37 -6 0 -1709 0 -1709 -32 0 c-31 0 -87 5 -348 31 -58 6 -158 15 -222 20
-195 15 -344 27 -523 44 -93 8 -224 20 -290 25 -66 6 -172 15 -235 21 -264 23
-266 23 -297 2 -51 -37 -167 -90 -235 -108 -129 -34 -277 -6 -448 83 l-85 45
-150 -12 c-82 -7 -193 -16 -245 -21 -52 -5 -176 -17 -275 -25 -99 -8 -229 -20
-290 -25 -60 -5 -171 -14 -245 -20 -74 -6 -202 -17 -285 -25 -353 -33 -405
-37 -419 -32 -14 6 -16 173 -16 1690 0 1414 2 1686 14 1696 13 11 164 30 185
23 17 -6 14 -21 -19 -97 l-29 -70 -1 -1515 c0 -833 4 -1521 8 -1528 7 -10 30
-10 108 -3 54 6 180 15 279 21 99 6 218 16 265 21 47 5 117 9 155 9 39 0 106
4 150 10 44 5 152 14 240 20 88 6 219 15 290 20 72 5 175 12 230 16 l100 7 70
-45 c100 -63 138 -73 285 -72 142 0 202 17 283 79 52 40 72 42 261 25 61 -5
176 -14 256 -20 80 -5 237 -17 350 -25 377 -28 464 -35 625 -45 88 -6 207 -15
265 -20 78 -7 106 -6 112 3 4 7 8 692 8 1524 l0 1511 -46 88 c-25 47 -43 93
-39 101 4 13 19 14 83 9 42 -4 94 -9 115 -12z m885 -132 c7 -5 13 -29 14 -55
0 -36 -6 -55 -27 -82 -58 -77 -197 -137 -267 -116 -41 13 -68 43 -68 77 0 17
23 33 118 82 66 33 134 70 153 81 37 22 57 25 77 13z m-6110 -455 c17 -20 -54
-197 -78 -197 -29 0 -70 39 -70 66 0 19 -5 25 -19 22 -18 -3 -111 73 -111 91
0 12 105 24 130 16 22 -7 26 -20 10 -30 -5 -3 -10 -17 -10 -31 0 -14 4 -22 10
-19 6 3 10 16 10 27 0 36 39 68 81 68 20 0 41 -6 47 -13z m6127 -104 c9 -21
17 -54 18 -73 2 -34 1 -35 -63 -57 -83 -29 -106 -29 -126 2 -22 34 -30 98 -12
112 22 19 111 52 140 52 23 1 31 -6 43 -36z m-3567 -528 c28 -4 52 -11 52 -17
0 -6 -18 -6 -47 -1 -62 10 -178 10 -225 -1 -23 -5 -38 -5 -38 1 0 13 114 31
165 27 22 -1 64 -6 93 -9z m122 -46 c0 -4 9 -11 20 -14 21 -7 70 -71 70 -92 0
-7 -9 -13 -20 -13 -11 0 -20 7 -20 15 0 8 -4 15 -10 15 -5 0 -16 16 -24 35 -8
19 -19 35 -25 35 -12 0 -41 28 -41 40 0 5 11 4 25 -2 14 -6 25 -15 25 -19z
m-400 2 c0 -5 -16 -18 -35 -30 -19 -11 -35 -27 -35 -34 0 -8 -9 -26 -21 -41
-24 -31 -20 -83 12 -154 11 -24 17 -47 14 -52 -3 -6 1 -7 9 -4 9 3 26 -7 44
-27 26 -29 32 -32 46 -20 14 12 20 11 40 -8 17 -16 31 -21 46 -16 12 4 32 3
44 -3 66 -30 98 -42 110 -42 8 0 27 -7 42 -15 16 -8 36 -15 44 -15 28 0 130
-57 151 -84 46 -59 55 -167 19 -244 -31 -69 -140 -163 -140 -122 0 6 8 13 18
17 25 9 62 44 62 60 0 7 3 13 8 13 4 0 15 14 25 31 19 34 25 155 7 144 -5 -3
-10 2 -10 12 0 10 -11 30 -23 43 -21 22 -22 26 -8 36 12 10 10 12 -12 12 -15
0 -35 6 -45 14 -9 8 -39 21 -67 28 -176 44 -344 98 -376 121 -15 10 -32 19
-38 19 -6 0 -11 3 -11 8 0 4 -11 19 -25 34 -28 31 -42 109 -31 181 5 35 18 57
54 96 42 45 82 66 82 42z m805 -41 c3 -6 -4 -10 -17 -10 l-23 0 5 -238 c4
-180 8 -243 18 -255 12 -14 12 -19 -2 -32 -14 -14 -16 -47 -16 -221 0 -129 -4
-204 -10 -204 -11 0 -15 952 -3 963 10 10 41 8 48 -3z m875 -21 c12 -16 19
-33 16 -36 -4 -4 -14 3 -22 16 -13 17 -19 20 -30 10 -12 -9 -14 -85 -14 -450
0 -286 -3 -439 -10 -439 -7 0 -10 162 -10 465 l0 465 24 0 c16 0 32 -11 46
-31z m-358 -21 c43 -34 66 -72 85 -138 15 -55 17 -137 3 -145 -5 -3 -10 -16
-10 -28 -1 -22 -36 -74 -45 -65 -2 2 7 33 21 68 27 65 27 65 8 183 -3 20 -10
37 -15 37 -5 0 -9 6 -9 14 0 7 -20 32 -45 55 -37 34 -52 41 -84 41 -22 0 -43
5 -47 11 -5 9 7 10 46 5 37 -5 65 -16 92 -38z m968 -149 c0 -105 -4 -198 -9
-208 -6 -11 -6 -33 1 -60 8 -30 8 -49 0 -66 -8 -16 -8 -26 -1 -31 8 -5 7 -151
-1 -174 -6 -15 -4 -56 3 -61 13 -9 -4 -69 -20 -69 -11 0 -13 7 -9 26 6 22 7
162 2 384 0 25 1 136 2 248 2 172 4 202 17 202 13 0 15 -28 15 -191z m-3087
118 c3 -7 3 -26 0 -42 -4 -19 -2 -26 6 -21 7 5 11 -3 11 -24 0 -17 6 -33 14
-36 8 -3 17 -19 20 -36 3 -17 15 -37 25 -45 11 -7 21 -23 23 -35 2 -13 11 -24
22 -26 11 -2 31 -15 45 -28 14 -13 33 -24 42 -24 9 0 30 -7 45 -15 40 -21 177
-21 198 0 8 8 23 15 33 15 10 0 29 9 43 20 32 25 50 25 50 0 0 -11 4 -19 9
-18 5 2 22 -11 38 -28 32 -36 82 -64 113 -64 11 0 20 -4 20 -9 0 -10 89 -41
119 -41 28 0 26 -8 -6 -36 -36 -31 -44 -30 -66 7 -16 29 -21 31 -55 25 -20 -3
-68 -9 -106 -13 -38 -3 -90 -14 -115 -23 -47 -17 -49 -19 -40 -80 4 -24 2 -25
-41 -23 -132 7 -189 15 -247 33 -36 11 -74 20 -84 20 -10 0 -19 4 -19 9 0 5
-12 12 -27 16 -16 3 -45 19 -65 36 -20 16 -41 29 -47 29 -5 0 -15 13 -22 29
-7 16 -16 28 -20 26 -3 -3 -15 11 -25 30 -10 19 -22 35 -25 35 -7 0 -18 51
-24 114 -1 21 -7 41 -13 45 -12 8 -21 156 -11 173 7 10 9 10 9 -2 0 -12 3 -11
17 3 22 22 148 25 156 4z m1065 -7 c26 -16 31 -24 23 -34 -6 -8 -10 -26 -9
-42 1 -16 1 -42 0 -57 -2 -27 -4 -28 -39 -21 -21 4 -45 13 -54 20 -8 8 -30 14
-48 14 -19 0 -30 4 -26 10 3 6 -5 10 -19 10 -31 0 -58 26 -54 53 2 12 18 32
37 44 46 31 141 32 189 3z m1452 -11 c0 -5 -4 -9 -10 -9 -5 0 -10 7 -10 16 0
8 5 12 10 9 6 -3 10 -10 10 -16z m-469 -48 c68 -72 60 -195 -17 -245 -32 -22
-156 -34 -274 -26 l-85 5 -7 120 c-4 66 -5 135 -2 153 l5 32 171 0 171 0 38
-39z m503 -3 c16 -31 16 -31 -4 -13 -11 10 -20 24 -20 32 0 21 7 15 24 -19z
m42 -55 c7 -10 13 -25 13 -33 1 -10 -6 -6 -19 10 -11 14 -20 28 -20 33 0 12
12 8 26 -10z m-1208 -5 c14 -14 17 -184 4 -192 -5 -3 -19 3 -32 12 -13 9 -55
33 -94 52 -70 34 -71 36 -68 70 2 19 6 37 8 39 3 4 125 27 155 30 8 0 20 -4
27 -11z m1274 -103 c34 -56 21 -60 -16 -5 -28 42 -31 50 -18 50 4 0 19 -20 34
-45z m-93 -61 c9 -16 41 -67 72 -114 30 -47 79 -123 108 -170 123 -200 204
-326 218 -342 12 -13 35 -18 102 -20 l86 -3 0 -55 c0 -53 -1 -55 -25 -52 -14
1 -41 7 -60 12 -102 27 -246 52 -405 69 -231 26 -223 24 -185 30 l35 6 3 325
c1 179 4 331 7 338 7 20 26 10 44 -24z m142 -16 c11 -21 11 -22 -4 -9 -10 7
-17 17 -17 22 0 15 9 10 21 -13z m-399 -325 c3 -271 1 -313 -12 -316 -8 -2
-49 -5 -90 -6 -164 -5 -327 -45 -447 -109 -34 -19 -95 -65 -136 -103 -41 -38
-80 -69 -85 -69 -16 0 -17 22 -12 139 l5 106 55 3 c30 2 60 8 65 13 6 6 10 90
11 208 0 108 3 202 7 208 4 6 81 13 184 16 174 7 222 15 292 52 39 20 103 93
125 143 11 23 23 39 27 35 5 -5 9 -149 11 -320z m452 240 c38 -55 50 -96 15
-53 -18 23 -59 98 -59 109 0 6 2 4 44 -56z m-626 16 c-2 -6 -8 -10 -13 -10 -5
0 -11 4 -13 10 -2 6 4 11 13 11 9 0 15 -5 13 -11z m-38 -15 c0 -3 -6 -12 -14
-20 -17 -16 -56 -19 -56 -4 0 6 11 10 25 10 14 0 25 5 25 10 0 6 5 10 10 10 6
0 10 -3 10 -6z m-2283 -86 c91 -135 344 -233 628 -243 l110 -4 23 -33 c54 -79
113 -130 190 -165 77 -36 78 -36 222 -37 104 -1 155 3 180 13 93 37 128 56
167 87 23 19 46 34 52 34 14 0 15 -396 2 -405 -5 -3 -38 20 -73 50 -79 70
-178 125 -288 160 -47 15 -92 31 -101 35 -60 30 -478 43 -634 21 -44 -7 -111
-16 -150 -22 -38 -5 -124 -19 -190 -31 -66 -11 -137 -23 -157 -25 l-38 -5 0
314 c0 173 3 318 7 322 4 3 11 -1 16 -11 5 -10 20 -34 34 -55z m2188 32 c-8
-13 -395 -12 -395 1 0 5 87 9 201 9 134 0 198 -3 194 -10z m815 -40 c0 -5 -5
-10 -11 -10 -5 0 -7 5 -4 10 3 6 8 10 11 10 2 0 4 -4 4 -10z m-1673 -36 c91
-44 47 -155 -75 -185 -43 -10 -64 -11 -114 0 -67 14 -109 36 -102 54 2 7 27
25 55 42 27 16 71 49 97 72 51 47 70 49 139 17z m1722 -40 c12 -19 21 -38 21
-42 0 -12 -49 53 -50 66 0 20 7 14 29 -24z m-2199 -64 c0 -5 -4 -10 -10 -10
-5 0 -10 5 -10 10 0 6 5 10 10 10 6 0 10 -4 10 -10z m100 -121 c60 -59 93 -71
212 -78 58 -3 110 -9 114 -13 12 -13 -186 -9 -225 3 -67 22 -104 44 -140 83
-20 22 -42 45 -50 53 -9 9 -11 25 -6 49 l6 36 26 -48 c14 -27 43 -65 63 -85z
m2165 85 c9 -19 15 -37 13 -40 -4 -3 -48 72 -48 83 0 13 20 -11 35 -43z m45
-80 c0 -8 -4 -14 -10 -14 -5 0 -10 9 -10 21 0 11 5 17 10 14 6 -3 10 -13 10
-21z m-1805 -74 c4 -6 -6 -10 -22 -10 -22 0 -25 2 -13 10 19 12 27 12 35 0z
m1913 -12 c3 -14 -3 -18 -26 -18 -30 0 -58 21 -45 34 14 14 68 1 71 -16z
m-2343 -279 c355 -34 524 -149 609 -413 28 -85 34 -166 14 -166 -28 0 -116 50
-162 91 l-49 43 -76 -2 c-42 -1 -87 -5 -101 -7 -31 -6 -416 -43 -680 -65 -63
-5 -185 -17 -270 -25 -85 -9 -204 -20 -265 -24 -60 -5 -138 -13 -172 -16 -59
-7 -63 -6 -63 12 0 11 14 51 31 89 17 38 39 87 49 109 10 22 37 85 59 139 23
55 46 105 51 111 10 12 89 34 190 54 30 6 78 15 105 21 97 19 192 32 330 45
183 16 267 17 400 4z m1825 -4 c117 -9 349 -48 530 -90 30 -7 67 -16 83 -19
29 -7 30 -8 117 -206 23 -52 50 -113 60 -135 31 -70 50 -117 50 -128 0 -6 -23
-7 -62 -2 -35 3 -112 11 -173 16 -60 4 -177 15 -260 24 -82 8 -202 19 -265 25
-149 13 -287 26 -485 45 -193 19 -354 34 -376 35 -9 0 -35 -18 -56 -40 -47
-46 -144 -100 -180 -100 -25 0 -25 0 -19 68 14 137 62 241 151 327 165 161
431 215 885 180z" />
        <path d="M4050 1868 c0 -43 -7 -64 -35 -111 -34 -56 -44 -100 -26 -111 5 -3
13 6 19 22 29 82 75 170 88 165 8 -3 14 0 14 6 0 15 -43 81 -52 81 -5 0 -8
-24 -8 -52z" />
        <path d="M4118 1693 c-10 -24 -21 -43 -26 -43 -4 0 -15 12 -23 26 l-16 27 -18
-57 c-10 -31 -26 -61 -37 -67 -20 -11 -24 -50 -6 -78 24 -39 5 -51 -82 -51
-52 0 -79 -4 -75 -10 3 -5 25 -10 48 -10 35 -1 39 -2 24 -11 -10 -6 -34 -8
-53 -5 -96 17 -99 17 -139 -7 -39 -22 -40 -24 -40 -77 l0 -55 -47 -3 c-25 -2
-52 -10 -58 -18 -7 -7 -25 -14 -41 -14 -16 0 -29 -4 -29 -8 0 -13 86 -72 104
-72 8 0 20 -9 26 -20 9 -17 7 -22 -15 -30 -15 -6 -23 -14 -20 -20 8 -13 48
-13 62 1 8 8 24 8 60 -1 88 -21 108 -23 121 -7 9 11 24 13 52 10 25 -4 40 -2
40 5 0 13 57 -4 81 -24 21 -19 44 -18 76 3 31 21 105 22 163 3 33 -11 46 -11
61 -2 10 7 30 12 44 12 14 0 25 5 25 10 0 6 -16 10 -35 10 -48 0 -44 17 5 22
43 4 72 -3 70 -16 -3 -15 24 -26 63 -26 45 0 47 9 6 32 -34 20 -31 38 6 38 13
0 27 5 30 10 4 6 -5 10 -19 10 -37 0 -32 14 12 30 20 8 41 17 46 19 5 2 7 -6
4 -17 -6 -21 -5 -21 31 -6 20 8 40 19 45 24 15 15 -20 23 -45 9 -20 -10 -25
-8 -46 17 -22 28 -23 28 -50 12 -25 -14 -29 -15 -43 0 -31 32 -38 53 -26 83 9
25 7 32 -12 51 -17 17 -35 23 -77 24 -30 1 -55 -3 -55 -7 0 -12 -47 -11 -54 0
-4 5 6 14 21 19 23 8 9 11 -67 12 -111 1 -134 12 -125 56 8 35 44 113 63 136
8 9 12 32 10 55 l-3 38 -17 -42z m-13 -308 c28 -17 55 -25 90 -25 40 0 46 -3
32 -11 -19 -11 -100 2 -144 23 -20 10 -31 9 -108 -7 l-30 -7 25 21 c23 19 44
26 80 30 8 0 33 -10 55 -24z m250 15 c16 -7 13 -9 -17 -9 -21 -1 -38 4 -38 9
0 12 27 12 55 0z m-437 -47 c-10 -2 -26 -2 -35 0 -10 3 -2 5 17 5 19 0 27 -2
18 -5z m157 -80 c6 -12 16 -28 23 -36 15 -18 1 -65 -26 -85 -15 -12 -15 -13 6
-18 12 -4 22 -10 22 -14 0 -10 -64 -20 -89 -13 -29 7 -26 23 3 23 14 0 28 5
31 10 3 6 -3 10 -15 10 -32 0 -46 41 -30 90 20 60 54 75 75 33z m165 -53 c-14
-26 -64 -60 -89 -60 -18 0 -20 4 -15 28 8 33 22 52 39 52 7 0 23 9 36 19 24
19 24 19 31 -1 5 -11 3 -28 -2 -38z m-328 29 c29 -9 37 -17 41 -43 6 -40 -5
-51 -34 -34 -26 14 -38 29 -56 71 -10 23 -10 27 0 23 6 -2 28 -10 49 -17z
m458 -2 c0 -27 -83 -87 -120 -87 -31 0 -24 14 21 46 77 53 99 62 99 41z m-552
-29 c37 -23 44 -49 10 -41 -39 8 -67 25 -84 51 -16 25 -16 25 12 18 16 -4 44
-17 62 -28z m-135 3 c50 -22 69 -41 39 -41 -27 0 -79 28 -86 45 -7 19 -7 19
47 -4z m780 5 c-13 -23 -87 -73 -101 -68 -21 7 -14 19 30 51 44 33 85 42 71
17z m-802 -46 c11 0 17 -4 14 -10 -9 -15 -34 -12 -53 7 -16 16 -16 16 1 10 10
-4 28 -7 38 -7z m114 -60 c-3 -5 -22 -10 -41 -10 -21 0 -33 4 -29 10 3 6 22
10 41 10 21 0 33 -4 29 -10z m140 0 c3 -5 -3 -10 -15 -10 -12 0 -18 5 -15 10
3 6 10 10 15 10 5 0 12 -4 15 -10z m305 0 c0 -5 -9 -10 -20 -10 -11 0 -20 5
-20 10 0 6 9 10 20 10 11 0 20 -4 20 -10z" />
        <path d="M3271 5644 c0 -11 3 -14 6 -6 3 7 2 16 -1 19 -3 4 -6 -2 -5 -13z" />
        <path d="M3500 5493 c0 -10 66 -10 76 0 4 4 -11 7 -34 7 -23 0 -42 -3 -42 -7z" />
        <path d="M3515 4730 c-3 -5 -1 -10 4 -10 6 0 11 5 11 10 0 6 -2 10 -4 10 -3 0
-8 -4 -11 -10z" />
        <path d="M2480 4190 c0 -5 5 -10 11 -10 5 0 7 5 4 10 -3 6 -8 10 -11 10 -2 0
-4 -4 -4 -10z" />
        <path d="M2565 4080 c-3 -5 -1 -10 4 -10 6 0 11 5 11 10 0 6 -2 10 -4 10 -3 0
-8 -4 -11 -10z" />
        <path d="M2915 3063 c-11 -2 -30 -6 -43 -9 -32 -7 -62 -40 -62 -69 0 -32 44
-60 116 -75 31 -7 55 -18 58 -27 14 -36 -59 -46 -89 -13 -27 30 -89 24 -93 -7
-2 -16 6 -28 30 -43 28 -18 45 -21 113 -17 45 2 90 10 102 17 32 21 49 65 35
95 -13 27 -69 55 -112 55 -15 0 -38 9 -51 19 l-24 19 28 7 c18 5 35 2 52 -9
26 -17 90 -22 99 -7 11 17 -29 52 -69 61 -42 10 -57 10 -90 3z" />
        <path d="M2477 3053 c-11 -18 -11 -233 0 -244 16 -16 248 -8 265 9 24 24 -18
42 -99 42 -70 0 -73 1 -73 24 0 22 4 24 70 28 69 4 98 16 86 37 -4 6 -34 11
-66 11 -67 0 -90 7 -90 26 0 17 26 23 110 26 59 3 65 5 68 26 3 22 3 22 -132
22 -74 0 -137 -3 -139 -7z" />
        <path d="M3135 3044 c-29 -29 -15 -49 40 -54 l50 -5 0 -90 0 -90 43 -3 c38 -3
43 0 52 23 6 14 10 58 10 96 l0 69 39 0 c51 0 71 8 71 29 0 36 -21 41 -156 41
-109 0 -135 -3 -149 -16z" />
        <path d="M4942 3070 c-34 -38 -42 -54 -37 -70 5 -15 12 -19 23 -15 35 13 37 9
40 -70 3 -103 8 -125 30 -125 37 0 42 20 42 165 0 144 -5 166 -39 164 -9 -1
-36 -23 -59 -49z" />
        <path d="M5136 3079 c-23 -18 -26 -28 -26 -79 0 -49 4 -64 26 -90 21 -24 33
-30 57 -28 36 3 46 -16 23 -47 -14 -19 -15 -19 -33 -2 -19 17 -54 23 -66 11
-11 -11 17 -56 44 -70 39 -20 62 -18 87 9 31 33 42 71 42 145 -1 110 -40 172
-109 172 -10 0 -30 -9 -45 -21z m84 -60 c15 -27 9 -59 -13 -73 -15 -9 -21 -7
-33 8 -17 24 -18 58 -2 74 18 18 36 15 48 -9z" />
        <path d="M5370 3077 c-33 -17 -47 -68 -31 -113 10 -28 10 -37 -3 -56 -52 -74
31 -185 117 -155 54 18 75 87 41 136 -14 19 -14 29 -4 67 16 55 4 85 -42 114
-38 23 -45 24 -78 7z m65 -87 c0 -29 -32 -41 -41 -16 -9 24 4 48 23 44 12 -2
18 -12 18 -28z m-6 -104 c17 -21 10 -70 -11 -74 -24 -5 -40 31 -28 62 11 29
22 33 39 12z" />
        <path d="M5638 3048 c-21 -17 -103 -156 -111 -190 -11 -43 1 -57 55 -64 33 -5
51 -12 55 -23 17 -57 36 -59 63 -6 24 47 25 68 5 85 -10 9 -15 39 -17 108 -3
102 -12 119 -50 90z m-7 -181 c-11 -11 -41 -3 -41 11 0 5 10 22 23 38 l22 29
3 -34 c2 -18 -1 -38 -7 -44z" />
        <path d="M4595 7067 c-11 -18 -21 -35 -23 -39 -2 -5 12 -8 30 -8 33 0 34 1 30
35 -6 47 -14 50 -37 12z" />
        <path d="M2130 7026 c-25 -18 -50 -35 -55 -37 -22 -9 -215 -141 -215 -148 0
-3 10 -22 22 -41 22 -34 22 -35 26 -10 5 43 23 79 48 95 22 14 25 14 43 -7 48
-56 191 -290 191 -313 0 -14 3 -25 6 -25 15 0 113 66 114 77 0 6 -8 18 -18 25
-10 7 -51 64 -92 127 -40 63 -84 131 -97 150 l-24 36 26 22 c31 27 71 29 103
7 13 -9 26 -14 28 -11 6 6 -45 87 -55 87 -3 0 -26 -15 -51 -34z" />
        <path d="M5790 6993 c0 -24 -148 -256 -196 -307 l-37 -40 44 -38 c24 -21 50
-38 57 -38 6 0 12 -4 12 -10 0 -5 9 -10 20 -10 11 0 20 -4 20 -8 0 -16 111
-44 148 -37 165 31 248 235 145 355 -32 37 -160 132 -198 146 -10 4 -15 0 -15
-13z m131 -86 c9 -7 24 -27 33 -46 15 -28 16 -40 6 -79 -21 -86 -76 -167 -141
-208 -45 -28 -69 -30 -110 -8 -26 13 -30 20 -24 41 9 35 194 313 208 313 7 0
19 -6 28 -13z" />
        <path d="M1685 6680 c-4 -6 3 -42 14 -79 19 -63 23 -68 45 -64 27 6 115 -34
123 -55 3 -7 -11 -28 -32 -48 -44 -41 -56 -36 -75 31 -11 41 -30 62 -30 34 0
-12 28 -101 42 -134 4 -11 11 -51 16 -89 l7 -69 30 26 30 25 -27 29 c-20 21
-28 39 -27 64 0 29 8 40 49 72 27 20 56 37 64 37 26 0 86 -33 86 -47 0 -22 20
-14 71 28 52 43 60 59 31 59 -10 0 -40 11 -68 24 -27 14 -114 56 -193 95 -78
39 -145 71 -146 71 -2 0 -7 -5 -10 -10z" />
        <path d="M1430 6451 c0 -4 -24 -24 -53 -43 -37 -25 -59 -48 -72 -77 -17 -39
-17 -45 -3 -84 18 -52 66 -87 118 -87 20 0 68 11 106 24 101 35 124 36 154 6
28 -28 25 -64 -9 -102 -28 -32 -32 -33 -105 -33 -42 1 -76 0 -76 -2 0 -1 17
-18 38 -38 40 -37 62 -44 62 -20 0 8 19 27 43 41 72 45 97 83 97 146 0 52 -28
101 -69 123 -41 21 -56 19 -160 -16 -105 -35 -139 -35 -160 2 -20 36 2 78 53
103 33 16 46 18 80 8 22 -6 43 -9 45 -6 2 2 -11 17 -30 34 -33 29 -59 39 -59
21z" />
    </g>
</svg>